<?xml version="1.0" encoding="UTF-8" standalone="no"?>
<!DOCTYPE svg PUBLIC "-//W3C//DTD SVG 1.1//EN"
 "http://www.w3.org/Graphics/SVG/1.1/DTD/svg11.dtd">
<!-- Generated by graphviz version 2.38.0 (20140413.2041)
 -->
<!-- Title: %3 Pages: 1 -->
<svg width="828pt" height="260pt"
 viewBox="0.00 0.00 828.01 260.00" xmlns="http://www.w3.org/2000/svg" xmlns:xlink="http://www.w3.org/1999/xlink">
<g id="graph0" class="graph" transform="scale(1 1) rotate(0) translate(4 256)">
<title>%3</title>
<polygon fill="white" stroke="none" points="-4,4 -4,-256 824.014,-256 824.014,4 -4,4"/>
<!-- [root] azurerm_resource_group.jambit&#45;iac -->
<g id="node1" class="node"><title>[root] azurerm_resource_group.jambit&#45;iac</title>
<polygon fill="none" stroke="black" points="592.628,-108 320.628,-108 320.628,-72 592.628,-72 592.628,-108"/>
<text text-anchor="middle" x="456.628" y="-86.3" font-family="Times,serif" font-size="14.00">azurerm_resource_group.jambit&#45;iac</text>
</g>
<!-- [root] provider.azurerm -->
<g id="node2" class="node"><title>[root] provider.azurerm</title>
<polygon fill="none" stroke="black" points="456.628,-36 327.764,-18 456.628,-3.55271e-15 585.492,-18 456.628,-36"/>
<text text-anchor="middle" x="456.628" y="-14.3" font-family="Times,serif" font-size="14.00">provider.azurerm</text>
</g>
<!-- [root] azurerm_resource_group.jambit&#45;iac&#45;&gt;[root] provider.azurerm -->
<g id="edge1" class="edge"><title>[root] azurerm_resource_group.jambit&#45;iac&#45;&gt;[root] provider.azurerm</title>
<path fill="none" stroke="black" d="M456.628,-71.6966C456.628,-63.9827 456.628,-54.7125 456.628,-46.1124"/>
<polygon fill="black" stroke="black" points="460.128,-46.1043 456.628,-36.1043 453.128,-46.1044 460.128,-46.1043"/>
</g>
<!-- [root] meta.count&#45;boundary (count boundary fixup) -->
<g id="node3" class="node"><title>[root] meta.count&#45;boundary (count boundary fixup)</title>
<ellipse fill="none" stroke="black" cx="247.628" cy="-162" rx="247.756" ry="18"/>
<text text-anchor="middle" x="247.628" y="-158.3" font-family="Times,serif" font-size="14.00">[root] meta.count&#45;boundary (count boundary fixup)</text>
</g>
<!-- [root] meta.count&#45;boundary (count boundary fixup)&#45;&gt;[root] azurerm_resource_group.jambit&#45;iac -->
<g id="edge2" class="edge"><title>[root] meta.count&#45;boundary (count boundary fixup)&#45;&gt;[root] azurerm_resource_group.jambit&#45;iac</title>
<path fill="none" stroke="black" d="M297.423,-144.322C327.076,-134.391 364.912,-121.718 396.259,-111.219"/>
<polygon fill="black" stroke="black" points="397.392,-114.531 405.762,-108.036 395.169,-107.893 397.392,-114.531"/>
</g>
<!-- [root] provider.azurerm (close) -->
<g id="node4" class="node"><title>[root] provider.azurerm (close)</title>
<ellipse fill="none" stroke="black" cx="666.628" cy="-162" rx="153.273" ry="18"/>
<text text-anchor="middle" x="666.628" y="-158.3" font-family="Times,serif" font-size="14.00">[root] provider.azurerm (close)</text>
</g>
<!-- [root] provider.azurerm (close)&#45;&gt;[root] azurerm_resource_group.jambit&#45;iac -->
<g id="edge3" class="edge"><title>[root] provider.azurerm (close)&#45;&gt;[root] azurerm_resource_group.jambit&#45;iac</title>
<path fill="none" stroke="black" d="M618.186,-144.853C588.218,-134.863 549.489,-121.954 517.463,-111.278"/>
<polygon fill="black" stroke="black" points="518.35,-107.885 507.756,-108.043 516.136,-114.525 518.35,-107.885"/>
</g>
<!-- [root] root -->
<g id="node5" class="node"><title>[root] root</title>
<ellipse fill="none" stroke="black" cx="456.628" cy="-234" rx="58.4896" ry="18"/>
<text text-anchor="middle" x="456.628" y="-230.3" font-family="Times,serif" font-size="14.00">[root] root</text>
</g>
<!-- [root] root&#45;&gt;[root] meta.count&#45;boundary (count boundary fixup) -->
<g id="edge4" class="edge"><title>[root] root&#45;&gt;[root] meta.count&#45;boundary (count boundary fixup)</title>
<path fill="none" stroke="black" d="M418.294,-220.161C387.272,-209.771 343.033,-194.954 307.369,-183.009"/>
<polygon fill="black" stroke="black" points="308.15,-179.579 297.556,-179.722 305.927,-186.217 308.15,-179.579"/>
</g>
<!-- [root] root&#45;&gt;[root] provider.azurerm (close) -->
<g id="edge5" class="edge"><title>[root] root&#45;&gt;[root] provider.azurerm (close)</title>
<path fill="none" stroke="black" d="M495.145,-220.161C526.749,-209.626 572.004,-194.541 608.089,-182.513"/>
<polygon fill="black" stroke="black" points="609.625,-185.691 618.005,-179.208 607.411,-179.05 609.625,-185.691"/>
</g>
</g>
</svg>
